<?xml version="1.0" standalone="no"?>
<svg xmlns="http://www.w3.org/2000/svg" viewBox="0 0 159 71" width="159" height="71"><g fill="#305699" color="#305699" transform="translate(57.266 0) scale(0.9166667) "><svg width="48.0" height="48.0" x="0.0" y="0.0" viewBox="0 0 48 48"><path fill="currentColor" fill-rule="evenodd" d="M21.088 35.003c-.108 0-.27 0-.432-.054-1.294-.27-1.294-1.403-1.348-2.212-.054-.862-.108-1.186-.54-1.887-.215-.324.054-.647.378-.647.054 0 .108 0 .216.054 1.402.7 3.344 1.887 3.29 3.182 0 .054-.216 1.564-1.564 1.564m-2.643-14.994c-.054.162-.162.27-.378.378a1.787 1.787 0 0 1-1.294 0c-.593-.27-1.133-.701-1.564-1.079-.701-.593-1.348-1.132-2.157-.97-.54.053-.971.377-1.349.97-.161.27-.27.594-.161.917.215.755 1.024 1.187 2.319 1.888 2.21 1.186 4.045 2.265 4.045 3.883v.431c0 .108-.054.162-.054.27 0 .054-.054.108-.054.162 0 .054-.054.108-.054.162-.054.107-.108.161-.216.27l-.162.161c-.431.324-1.024.485-1.564.485-.755 0-1.726-.323-1.887-1.294-.27-1.402-2.535-3.074-4.53-3.236-.972-.108-1.834.162-2.428.755l-.215.27c-.054.054-.108.162-.162.216-.054.107-.108.161-.162.27 0 .053-.054.053-.054.107-.054.054-.054.108-.108.216-.054 0-.054.054-.054.108-.054.054-.054.162-.054.215-.27 1.187 1.24 2.104 3.236 3.344 3.29 1.996 5.879 3.83 4.908 6.095-.216.485-.647.97-1.186 1.294a3.536 3.536 0 0 1-1.78.485c-1.24 0-2.265-.755-2.859-2.103-.593-1.348-1.294-2.05-2.103-2.05-.593 0-1.133.324-1.51.971-.162.378-.324.81-.324 1.295-1.833-3.236-2.912-7.011-2.912-10.949C1.618 11.596 11.649 1.564 24 1.564c1.672 0 3.344.162 4.962.54.593.162.809.54.917.863.161.539 0 1.186-.432 1.564-.377.377-.97.431-1.672.215-1.456-.431-2.912-.215-3.775.648-.593.593-.809 1.402-.54 2.157.216.647.918 1.726 3.29 2.157 1.834.324 3.183.216 4.854.108a54.109 54.109 0 0 1 3.29-.108c3.128 0 4.854 1.564 5.394 2.859.377.917.27 1.78-.324 2.373-1.186 1.186-4.207-.216-5.609-1.025-.162-.108-.27-.162-.431-.27-.378-.215-.863-.108-1.08.27-.215.378-.107.863.217 1.079.054.054.215.161.431.27 1.834 1.186 2.859 2.804 2.859 4.476 0 1.402-.755 2.642-2.05 3.451-1.025.594-1.941.648-2.643.054-.7-.593-.97-1.672-.593-2.696.378-1.133.216-2.212-.485-3.02-1.133-1.295-3.506-1.78-6.04-1.295-.162.054-.324.054-.432.108-.917.27-2.697.97-4.045 2.157-.485-1.618-2.157-2.642-3.506-3.397-.809-.486-1.887-1.133-1.887-1.51 0-.486.593-1.241 1.24-1.403.593-.162 1.133.216 1.618 1.025.755 1.348 2.157 2.265 3.398 2.157 1.025-.054 1.887-.647 2.373-1.726.377-.809.377-1.833.054-2.696-.27-.701-.917-1.618-2.427-2.212a.797.797 0 0 0-1.025.432.797.797 0 0 0 .432 1.025c.809.323 1.294.755 1.51 1.294.215.54.108 1.079 0 1.402-.216.54-.54.81-.971.81-.647.053-1.51-.54-1.942-1.349-1.186-2.103-2.804-1.942-3.397-1.78-1.349.324-2.481 1.672-2.481 2.966 0 1.295 1.294 2.05 2.642 2.859 1.996 1.186 3.236 2.05 2.75 3.613M23.947 0c1.834 0 3.614.216 5.34.594 1.078.215 1.833.97 2.103 1.995.27 1.079-.054 2.32-.863 3.128-.486.432-1.564 1.133-3.29.594-1.079-.324-1.834-.054-2.157.27-.108.107-.216.323-.162.539.108.377.701.862 2.05 1.078 1.671.27 2.912.216 4.476.108.97-.054 2.05-.108 3.397-.108 3.938 0 6.149 2.05 6.904 3.83.647 1.51.377 3.074-.647 4.098-1.025 1.025-2.481 1.079-3.884.755.54.917.81 1.888.81 2.913 0 1.995-1.025 3.775-2.859 4.854-1.564.97-3.236.97-4.476-.054-1.24-1.025-1.672-2.859-1.079-4.477.216-.593.108-1.078-.216-1.456-.72-.824-2.424-1.107-4.22-.802l-.256.047h-.054c-.054.054-.162.054-.216.108-1.186.54-2.48 3.236-2.373 6.256 0 1.672.432 5.77 4.369 7.227 1.78.701 3.505 1.025 5.123 1.025 2.75 0 5.07-.971 7.12-2.427 1.132-.755 2.21-1.726 3.235-2.697 2.178-2.333 3.708-4.966 4.014-6.891l.031-.228v-.054c0-.054.054-.108.054-.162 0 0 .03-.03.046-.068l.008-.04.108-.107.023-.023.085-.085s.054-.054.108-.054c.036 0 .072-.024.108-.04l.054-.014h.323c.054 0 .108.054.162.054 0 0 .03.03.068.045l.04.009.216.215s.053.054.053.108c0 .036.024.072.04.108l.014.054v.054c.216 1.348.324 2.157.324 3.667 0 12.868-10.202 23.41-23.07 23.881l-.39.012h-1.834c-1.618-.054-3.236-.27-4.746-.702-.122 0-.243-.03-.364-.068l-.122-.04h-.054c-.054 0-.108-.053-.162-.053C7.281 44.063 0 34.84 0 23.946 0 10.733 10.787-.054 23.946 0zm16.611 18.23c.378 0 .701.108 1.079.323 1.618 1.079 2.373 2.265 2.157 3.506 0 .108-.054.162-.054.216-.323.917-1.132 1.833-2.373 1.833-.27 0-.593-.054-.863-.161a2.387 2.387 0 0 1-1.51-1.618 3.42 3.42 0 0 1-.073-1.096l.02-.145v-.216c-.055 0-.055 0-.055-.054-.27-.539-.215-1.186.108-1.725.378-.54.917-.863 1.564-.863zm0 1.672c-.161 0-.27.161-.215.323.215.378.215.54.16 1.025-.053.431-.106 1.025.54 1.24a.687.687 0 0 0 .324.054c.594 0 .81-.7.81-.647.107-.701-.864-1.456-1.51-1.941 0-.054-.055-.054-.109-.054zM35.542 2.319c.754.108 3.073.378 3.667 2.104 0 .054.054.162.054.215.054.216.161 1.133-.432 1.942-.377.54-1.025.863-1.726.97h-.323c-.7 0-1.348-.269-1.834-.808-.323-.324-.485-.701-.593-.97v-.055c0-.054-.054-.108-.054-.108l-.054-.054c-.593-.431-.862-1.24-.647-1.995.216-.755.917-1.24 1.726-1.24zm-.162 1.564c-.216 0-.324.27-.216.378.378.27.485.431.648.809.161.377.376.863.97.863h.162c.868-.097.83-.84.812-.996l-.003-.029c-.216-.647-1.51-.917-2.373-1.025z"></path></svg></g><path fill="#0b005d" fill-rule="nonzero" d="M7.52 18.32L7.52 17.25Q6.02 18.49 4.25 18.49L4.25 18.49Q2.36 18.49 1.28 17.21L1.28 17.21Q0.25 15.97 0.25 13.80L0.25 13.80L0.25 9.15Q0.25 6.81 0.15 6.46Q0.05 6.12 0 6.02L0 6.02Q0.54 6.07 1.13 6.07L1.13 6.07L2.10 6.07Q2.48 6.07 3.12 6.04L3.12 6.04L3.12 12.82Q3.12 15.23 4.43 15.62L4.43 15.62Q4.83 15.74 5.30 15.74L5.30 15.74Q6.68 15.74 7.52 14.73L7.52 14.73L7.52 6.07L10.43 6.07L10.43 16.82Q10.43 17.85 10.52 18.32L10.52 18.32L7.52 18.32ZM16.43 4.48L13.79 2.58Q14.73 1.11 15.75 0L15.75 0L18.27 1.98Q17.77 2.60 17.33 3.20L17.33 3.20Q17.33 3.20 16.43 4.48L16.43 4.48ZM16.88 6.07L16.88 17.00Q16.88 18.01 16.92 18.32L16.92 18.32L13.95 18.32L13.95 6.07L16.88 6.07ZM25.62 15.74L25.62 15.74Q27.13 15.74 27.69 14.95L27.69 14.95L27.79 14.95L27.82 17.67Q27.25 18.25 25.69 18.43L25.69 18.43Q25.27 18.49 24.64 18.49Q24.01 18.49 23.28 18.26Q22.55 18.02 22.03 17.50L22.03 17.50Q20.96 16.41 20.96 14.09L20.96 14.09L20.96 8.77L19.20 8.77Q19.18 8.43 19.18 8.07L19.18 8.07L19.18 6.27Q19.18 6.07 19.20 6.07L19.20 6.07L20.96 6.07L20.96 2.73L23.84 2.73L23.84 6.07L27.06 6.07L27.06 8.77L23.84 8.77L23.84 13.55Q23.84 15.39 24.86 15.64L24.86 15.64Q25.18 15.74 25.62 15.74ZM30.18 7.25L30.18 6.62L30.15 6.07L40.05 6.07L34.08 15.97L38.68 15.97Q39.71 15.97 40.08 15.68L40.08 15.68L39.30 18.49Q38.79 18.46 38.06 18.43L38.06 18.43L36.61 18.36Q35.26 18.32 34.07 18.32L34.07 18.32Q31.42 18.32 29.13 18.49L29.13 18.49L35.26 8.37L32.36 8.37Q31.00 8.37 30.13 8.67L30.13 8.67Q30.18 7.76 30.18 7.25L30.18 7.25ZM41.61 12.29L41.61 12.29Q41.61 10.92 42.08 9.75Q42.55 8.58 43.41 7.70L43.41 7.70Q45.23 5.84 48.19 5.84L48.19 5.84Q50.68 5.84 52.20 7.49L52.20 7.49Q53.68 9.08 53.68 11.50L53.68 11.50Q53.68 12.42 53.54 12.76L53.54 12.76Q52.37 13.09 48.77 13.09L48.77 13.09L44.65 13.09Q44.95 14.34 46.07 15.04Q47.18 15.74 48.96 15.74L48.96 15.74Q50.82 15.74 52.16 15.07L52.16 15.07Q52.51 14.89 52.69 14.74L52.69 14.74Q52.66 15.23 52.63 15.75L52.63 15.75L52.50 17.58Q51.61 18.19 49.62 18.42L49.62 18.42Q49.03 18.49 48.49 18.49L48.49 18.49Q45.52 18.49 43.57 16.76L43.57 16.76Q41.61 15.01 41.61 12.29ZM50.57 10.82L50.57 10.82Q50.09 8.30 47.82 8.30L47.82 8.30Q46.04 8.30 45.12 9.83L45.12 9.83Q44.84 10.30 44.68 10.86L44.68 10.86Q44.96 10.88 45.38 10.89L45.38 10.89L46.24 10.89Q46.68 10.90 47.07 10.90L47.07 10.90L47.74 10.90Q48.34 10.90 48.91 10.89L48.91 10.89L49.88 10.85Q50.26 10.84 50.57 10.82ZM59.31 10.13L59.31 16.82Q59.31 17.85 59.40 18.32L59.40 18.32L56.46 18.32L56.46 6.07L59.31 6.07L59.31 7.11Q60.86 5.84 62.61 5.84L62.61 5.84Q64.54 5.84 65.68 7.14Q66.83 8.45 66.83 10.58L66.83 10.58L66.83 15.25Q66.83 17.23 66.89 17.63Q66.95 18.02 67.05 18.14Q67.15 18.26 67.22 18.35L67.22 18.35L67.20 18.40Q66.25 18.32 65.81 18.32L65.81 18.32L64.99 18.32Q64.62 18.32 63.98 18.35L63.98 18.35L63.98 11.96Q63.98 8.53 61.90 8.53L61.90 8.53Q60.35 8.53 59.31 10.13L59.31 10.13ZM78.66 17.66L78.66 17.66Q77.17 18.49 75.68 18.49Q74.19 18.49 73.08 18.02Q71.96 17.55 71.18 16.73L71.18 16.73Q69.56 15.05 69.56 12.35L69.56 12.35Q69.56 9.56 71.44 7.71L71.44 7.71Q73.32 5.84 76.27 5.84L76.27 5.84Q77.17 5.84 78.04 6.07L78.04 6.07L78.04 0.86L80.91 0.86L80.91 13.38Q80.91 14.94 81.05 15.42Q81.20 15.90 81.38 16.13Q81.56 16.35 81.84 16.55L81.84 16.55L79.64 18.49Q79.03 18.16 78.66 17.66ZM76.23 15.80L76.23 15.80Q77.21 15.80 78.04 15.42L78.04 15.42L78.04 8.93Q77.21 8.59 76.25 8.59Q75.29 8.59 74.61 8.85Q73.92 9.11 73.43 9.56L73.43 9.56Q72.40 10.52 72.40 12.06L72.40 12.06Q72.40 13.73 73.34 14.73L73.34 14.73Q74.34 15.80 76.23 15.80ZM87.21 0.88L87.21 6.52Q88.52 5.84 89.89 5.84Q91.27 5.84 92.26 6.26Q93.25 6.69 94.00 7.49L94.00 7.49Q95.63 9.26 95.63 11.96L95.63 11.96Q95.63 14.93 93.86 16.75L93.86 16.75Q92.16 18.49 89.63 18.49L89.63 18.49Q87.40 18.49 85.96 17.33L85.96 17.33Q84.34 16.02 84.34 13.71L84.34 13.71L84.34 0.88L87.21 0.88ZM87.21 9.48L87.21 13.68Q87.21 15.74 89.78 15.74L89.78 15.74Q91.03 15.74 91.89 14.64L91.89 14.64Q92.75 13.51 92.75 11.84L92.75 11.84Q92.75 10.15 91.84 9.29L91.84 9.29Q91.02 8.53 89.64 8.53L89.64 8.53Q88.80 8.53 87.80 9.09L87.80 9.09Q87.48 9.27 87.21 9.48L87.21 9.48ZM105.53 18.32L105.53 17.25Q104.03 18.49 102.26 18.49L102.26 18.49Q100.36 18.49 99.28 17.21L99.28 17.21Q98.25 15.97 98.25 13.80L98.25 13.80L98.25 9.15Q98.25 6.81 98.15 6.46Q98.05 6.12 98.00 6.02L98.00 6.02Q98.54 6.07 99.13 6.07L99.13 6.07L100.10 6.07Q100.49 6.07 101.12 6.04L101.12 6.04L101.12 12.82Q101.12 15.23 102.43 15.62L102.43 15.62Q102.83 15.74 103.30 15.74L103.30 15.74Q104.68 15.74 105.53 14.73L105.53 14.73L105.53 6.07L108.43 6.07L108.43 16.82Q108.43 17.85 108.53 18.32L108.53 18.32L105.53 18.32ZM114.94 9.79L114.94 17.00Q114.94 18.01 114.98 18.32L114.98 18.32L112.07 18.32L112.07 6.07L114.94 6.07L114.94 6.97Q115.93 5.84 117.03 5.84Q118.13 5.84 118.76 6.11L118.76 6.11L118.55 9.26L118.50 9.29Q118.09 8.57 116.80 8.57L116.80 8.57Q116.31 8.57 115.80 8.90Q115.29 9.23 114.94 9.79L114.94 9.79ZM119.60 12.29L119.60 12.29Q119.60 10.92 120.07 9.75Q120.54 8.58 121.39 7.70L121.39 7.70Q123.22 5.84 126.18 5.84L126.18 5.84Q128.67 5.84 130.18 7.49L130.18 7.49Q131.67 9.08 131.67 11.50L131.67 11.50Q131.67 12.42 131.53 12.76L131.53 12.76Q130.36 13.09 126.76 13.09L126.76 13.09L122.64 13.09Q122.94 14.34 124.05 15.04Q125.17 15.74 126.95 15.74L126.95 15.74Q128.81 15.74 130.15 15.07L130.15 15.07Q130.50 14.89 130.68 14.74L130.68 14.74Q130.65 15.23 130.62 15.75L130.62 15.75L130.49 17.58Q129.60 18.19 127.61 18.42L127.61 18.42Q127.02 18.49 126.48 18.49L126.48 18.49Q123.50 18.49 121.56 16.76L121.56 16.76Q119.60 15.01 119.60 12.29ZM128.55 10.82L128.55 10.82Q128.07 8.30 125.81 8.30L125.81 8.30Q124.03 8.30 123.11 9.83L123.11 9.83Q122.82 10.30 122.67 10.86L122.67 10.86Q122.95 10.88 123.36 10.89L123.36 10.89L124.23 10.89Q124.66 10.90 125.06 10.90L125.06 10.90L125.73 10.90Q126.33 10.90 126.90 10.89L126.90 10.89L127.86 10.85Q128.25 10.84 128.55 10.82ZM142.30 17.59L142.30 17.59Q140.64 18.49 139.29 18.49Q137.94 18.49 136.98 18.24Q136.02 17.99 135.35 17.50L135.35 17.50Q133.99 16.50 133.99 14.61L133.99 14.61Q133.99 12.93 135.66 11.80L135.66 11.80Q137.46 10.58 140.55 10.58L140.55 10.58L141.02 10.59Q141.16 10.61 141.34 10.61Q141.52 10.62 141.66 10.64L141.66 10.64Q141.56 8.77 140.04 8.45L140.04 8.45Q139.54 8.34 138.97 8.34Q138.40 8.34 137.85 8.44Q137.31 8.54 136.79 8.71L136.79 8.71Q135.66 9.07 135.16 9.54L135.16 9.54L135.13 9.52L134.78 6.93Q136.85 5.84 139.31 5.84L139.31 5.84Q143.13 5.84 144.20 8.59L144.20 8.59Q144.54 9.47 144.54 10.57L144.54 10.57L144.54 14.81Q144.54 16.17 145.50 16.66L145.50 16.66L143.38 18.61Q142.71 18.26 142.30 17.59ZM141.67 15.20L141.67 12.75Q141.35 12.69 141.01 12.69L141.01 12.69L140.54 12.69Q137.95 12.69 137.25 13.84L137.25 13.84Q137.04 14.18 137.04 14.55Q137.04 14.93 137.17 15.22Q137.31 15.50 137.63 15.69L137.63 15.69Q138.23 16.04 139.44 16.04Q140.64 16.04 141.68 15.47L141.68 15.47Q141.67 15.34 141.67 15.20L141.67 15.20ZM155.53 18.32L155.53 17.25Q154.03 18.49 152.26 18.49L152.26 18.49Q150.36 18.49 149.29 17.21L149.29 17.21Q148.25 15.97 148.25 13.80L148.25 13.80L148.25 9.15Q148.25 6.81 148.15 6.46Q148.05 6.12 148.01 6.02L148.01 6.02Q148.55 6.07 149.13 6.07L149.13 6.07L150.11 6.07Q150.49 6.07 151.13 6.04L151.13 6.04L151.13 12.82Q151.13 15.23 152.44 15.62L152.44 15.62Q152.84 15.74 153.30 15.74L153.30 15.74Q154.69 15.74 155.53 14.73L155.53 14.73L155.53 6.07L158.44 6.07L158.44 16.82Q158.44 17.85 158.53 18.32L158.53 18.32L155.53 18.32Z" transform="translate(0, 52)"></path></svg>